<svg width="23" height="24" viewBox="0 0 23 24" fill="none" xmlns="http://www.w3.org/2000/svg">
<g id="Clip path group">
<mask id="mask0_134_64" style="mask-type:luminance" maskUnits="userSpaceOnUse" x="0" y="0" width="23" height="24">
<g id="clip0">
<path id="Vector" d="M22.8849 12L11.4424 0.557556L-4.86989e-07 12L11.4424 23.4424L22.8849 12Z" fill="white"/>
</g>
</mask>
<g mask="url(#mask0_134_64)">
<g id="Group">
<g id="Group 515268">
<path id="Vector_2" d="M11.4401 4.04722C9.7868 4.0054 8.45004 5.3516 8.46263 7.0067L8.4672 7.60713L16.4713 7.66817C18.836 7.68622 20.7993 9.60196 20.824 11.9683L20.824 11.9684C20.8292 12.5313 20.7235 13.0881 20.5128 13.607C20.3021 14.1259 19.9905 14.5966 19.596 14.9923C19.2014 15.388 18.7315 15.7009 18.2133 15.9131C17.695 16.1252 17.1386 16.2326 16.5756 16.229L16.5128 16.2285L16.5124 16.1657C16.5101 15.851 16.6063 15.5448 16.7875 15.29L16.7875 15.29C16.9687 15.0352 17.2258 14.8445 17.5229 14.7447C18.1046 14.5481 18.6074 14.1734 18.9605 13.6731C19.3136 13.1728 19.4995 12.5719 19.492 11.9548C19.4702 10.3283 18.1156 9.01256 16.4874 9.00017L15.7058 8.99422L15.7662 16.9965C15.7842 19.3619 13.897 21.2975 11.53 21.286H11.5299C10.967 21.2827 10.4087 21.1685 9.88675 20.9499C9.36489 20.7314 8.88963 20.4129 8.48812 20.0126C8.08661 19.6122 7.76679 19.1378 7.54676 18.6165C7.32678 18.0952 7.21103 17.5372 7.20608 16.9743L7.20551 16.9095L7.27028 16.91C7.58505 16.9125 7.89255 17.0132 8.14979 17.1981M11.4401 4.04722L8.11262 17.2498M11.4401 4.04722C12.0516 4.06365 12.6461 4.26944 13.1413 4.63635C13.6364 5.00321 14.0078 5.51296 14.2042 6.09519C14.2983 6.38082 14.4797 6.63071 14.7226 6.80927C14.9655 6.98788 15.2576 7.0861 15.5572 7.08974L15.5573 7.08974L15.5778 7.08995L15.5778 7.08995L15.5785 7.02625L11.4401 4.04722ZM8.14979 17.1981L8.11262 17.2498M8.14979 17.1981C8.14979 17.198 8.14978 17.198 8.14978 17.198L8.11262 17.2498M8.14979 17.1981C8.40708 17.3828 8.60141 17.6426 8.70563 17.9409M8.11262 17.2498C8.3593 17.4269 8.54559 17.676 8.64548 17.9619M8.70563 17.9409C8.70562 17.9409 8.7056 17.9409 8.70559 17.9408L8.64548 17.9619M8.70563 17.9409C8.91122 18.5261 9.29398 19.035 9.8002 19.3962C10.3065 19.7572 10.9106 19.9524 11.5278 19.9542M8.70563 17.9409L8.64548 17.9619M8.64548 17.9619L11.5278 19.9542M11.5278 19.9542L11.5276 20.0179L11.5278 19.9542C11.5278 19.9542 11.5278 19.9542 11.5278 19.9542ZM11.5278 19.9542C13.1532 19.9573 14.4474 18.6238 14.435 16.9963L14.4304 16.3933M11.5278 19.9542L14.4304 16.3933M7.26978 16.9737L7.33349 16.9732C7.3335 16.974 7.3335 16.9748 7.33351 16.9756C7.31231 16.9745 7.29107 16.9739 7.26978 16.9737ZM7.26978 16.9737L7.26929 17.0374C7.2698 17.0374 7.27031 17.0374 7.27083 17.0374C7.27032 17.0162 7.26997 16.995 7.26978 16.9737ZM6.37423 7.77193L6.37467 7.83479C6.37687 8.14944 6.2807 8.45565 6.09946 8.71051C5.91825 8.96532 5.66108 9.15596 5.36398 9.25579C4.78228 9.45238 4.27964 9.82714 3.92654 10.3274C3.57343 10.8277 3.38749 11.4286 3.39505 12.0457C3.41675 13.6722 4.7714 14.9879 6.3996 15.0003L7.19159 15.0063L6.37423 7.77193ZM6.37423 7.77193L6.31137 7.77153M6.37423 7.77193L6.31137 7.77153M6.31137 7.77153C5.74845 7.76792 5.19199 7.87522 4.67375 8.08738L4.69789 8.14634M6.31137 7.77153L4.69789 8.14634M4.69789 8.14634L4.67375 8.08738C4.15546 8.2996 3.68564 8.61244 3.29103 9.00819C2.89648 9.40388 2.58493 9.87465 2.37425 10.3935C2.16352 10.9124 2.05779 11.4692 2.06302 12.0321L2.06302 12.0322M4.69789 8.14634L2.06302 12.0322M2.06302 12.0322C2.0876 14.3985 4.05087 16.3144 6.41564 16.3324M2.06302 12.0322L6.41564 16.3324M6.41564 16.3324L14.4304 16.3933M6.41564 16.3324L14.4304 16.3933M6.31 7.89894C6.31031 7.89064 6.31055 7.88234 6.31071 7.87404L6.31055 7.89894C6.31037 7.89894 6.31019 7.89894 6.31 7.89894ZM14.4199 15.0611L8.52354 15.0162L8.47729 8.9392L14.3736 8.98413L14.4199 15.0611Z" fill="#E0E0E0" stroke="#404D61" stroke-width="0.127416"/>
<rect id="Rectangle 212" x="9.26676" y="9.82481" width="4.35035" height="4.35035" fill="#F5F5F5" stroke="#F5F5F5" stroke-width="0.849441"/>
</g>
</g>
</g>
</g>
</svg>
