<svg width="254" height="295" viewBox="0 0 254 295" fill="none" xmlns="http://www.w3.org/2000/svg">
<path fill-rule="evenodd" clip-rule="evenodd" d="M0.254883 128.667V126.557C0.254883 57.1409 56.5279 0.866943 125.945 0.866943H128.055C197.471 0.866943 253.745 57.1409 253.745 126.557V128.667C253.745 198.084 197.471 254.357 128.055 254.357H125.945C56.5279 254.357 0.254883 198.084 0.254883 128.667Z" fill="#E4EBF7"/>
<path fill-rule="evenodd" clip-rule="evenodd" d="M40.2441 132.574C40.1344 133.663 39.8113 134.719 39.2933 135.683C38.7753 136.647 38.0725 137.499 37.2251 138.191C36.3776 138.884 35.4022 139.402 34.3543 139.718C33.3065 140.033 32.2068 140.139 31.1181 140.029C30.0294 139.919 28.9729 139.596 28.009 139.078C27.0452 138.56 26.1928 137.857 25.5005 137.01C24.8083 136.162 24.2897 135.187 23.9744 134.139C23.6592 133.091 23.5534 131.992 23.6631 130.903C23.8866 128.706 24.9733 126.687 26.6842 125.291C28.3952 123.895 30.5905 123.235 32.7878 123.456C34.9851 123.678 37.0045 124.762 38.4025 126.472C39.8004 128.182 40.4624 130.376 40.2431 132.574" fill="white"/>
<path d="M48.9195 148.35L36.1855 159.211M37.4445 136.056L47.9975 142.039L37.4445 136.056Z" stroke="white" stroke-width="2"/>
<path fill-rule="evenodd" clip-rule="evenodd" d="M40.3644 161.282C40.2952 162.032 40.0781 162.761 39.7256 163.427C39.3732 164.093 38.8923 164.682 38.3109 165.162C37.7294 165.641 37.0588 166 36.3378 166.218C35.6168 166.437 34.8596 166.51 34.11 166.435C33.3604 166.359 32.6332 166.136 31.9704 165.778C31.3075 165.42 30.7222 164.934 30.248 164.348C29.7739 163.763 29.4205 163.089 29.2081 162.366C28.9956 161.644 28.9285 160.886 29.0104 160.137C29.1741 158.641 29.9222 157.27 31.0918 156.323C32.2614 155.376 33.7578 154.929 35.2551 155.08C36.7524 155.231 38.1295 155.968 39.0864 157.129C40.0434 158.291 40.5027 159.783 40.3644 161.282ZM58.1974 145.066C58.1251 145.819 57.9045 146.551 57.5486 147.219C57.1926 147.887 56.7081 148.478 56.123 148.959C55.538 149.439 54.8638 149.799 54.1392 150.018C53.4146 150.237 52.6539 150.31 51.9008 150.234C51.1476 150.159 50.4169 149.935 49.7505 149.576C49.0842 149.217 48.4953 148.729 48.0178 148.142C47.5402 147.555 47.1834 146.879 46.9678 146.153C46.7522 145.428 46.6821 144.667 46.7614 143.914C46.9172 142.4 47.6673 141.009 48.8471 140.047C50.027 139.086 51.5402 138.631 53.0548 138.784C54.5693 138.937 55.9614 139.684 56.9255 140.862C57.8897 142.04 58.3471 143.552 58.1974 145.067V145.066ZM99.9104 27.8999L129.934 27.8869C130.541 27.8867 131.142 27.7669 131.702 27.5346C132.262 27.3022 132.771 26.9617 133.2 26.5326C133.629 26.1035 133.969 25.5942 134.201 25.0337C134.432 24.4732 134.552 23.8725 134.551 23.2659C134.551 22.6593 134.431 22.0588 134.199 21.4985C133.967 20.9382 133.626 20.4291 133.197 20.0004C132.768 19.5717 132.259 19.2316 131.698 18.9998C131.138 18.7679 130.537 18.6487 129.93 18.6489L99.9064 18.6619C98.698 18.6876 97.5478 19.1858 96.7025 20.0496C95.8572 20.9135 95.384 22.0742 95.3845 23.2829C95.385 24.4915 95.8592 25.6519 96.7053 26.515C97.5514 27.3781 98.702 27.8753 99.9104 27.8999ZM111.394 46.3619L141.417 46.3489C142.032 46.3614 142.643 46.2512 143.215 46.0245C143.786 45.7979 144.307 45.4595 144.746 45.0291C145.185 44.5987 145.533 44.0851 145.771 43.5182C146.009 42.9513 146.132 42.3427 146.132 41.7279C146.131 41.1131 146.008 40.5045 145.77 39.9379C145.531 39.3712 145.182 38.8578 144.743 38.4279C144.303 37.9979 143.783 37.6599 143.211 37.4338C142.639 37.2076 142.028 37.0979 141.413 37.1109L111.389 37.1239C110.164 37.1245 108.99 37.6116 108.124 38.4782C107.258 39.3448 106.772 40.5199 106.772 41.7449C106.773 42.97 107.26 44.1446 108.127 45.0105C108.993 45.8763 110.168 46.3625 111.393 46.3619" fill="white"/>
<path fill-rule="evenodd" clip-rule="evenodd" d="M113.785 27.8869V27.8849L129.675 27.8779C128.45 27.8786 127.276 28.3659 126.41 29.2326C125.544 30.0993 125.058 31.2744 125.059 32.4994C125.059 33.7245 125.547 34.8991 126.413 35.7648C127.28 36.6306 128.455 37.1166 129.68 37.1159L113.788 37.1229V37.1209C114.996 37.0953 116.146 36.5973 116.991 35.7338C117.836 34.8703 118.309 33.7101 118.308 32.502C118.308 31.2938 117.834 30.134 116.988 29.2713C116.142 28.4085 114.992 27.9115 113.784 27.8869H113.785ZM150.422 70.5569H146.443C145.178 70.553 143.966 70.0486 143.071 69.1539C142.177 68.2593 141.673 67.047 141.669 65.7819C141.673 64.5169 142.177 63.3048 143.072 62.4103C143.966 61.5158 145.178 61.0116 146.443 61.0079H150.422C151.687 61.0116 152.9 61.5157 153.794 62.4102C154.689 63.3047 155.193 64.5168 155.197 65.7819C155.193 67.0472 154.689 68.2596 153.795 69.1543C152.9 70.049 151.687 70.5532 150.422 70.5569Z" fill="white"/>
<path fill-rule="evenodd" clip-rule="evenodd" d="M171.941 30.7C171.941 14.308 185.23 1.02002 201.622 1.02002C218.014 1.02002 231.302 14.308 231.302 30.7C231.302 47.093 218.014 60.381 201.622 60.381C185.23 60.381 171.942 47.093 171.942 30.701" fill="#FF603B"/>
<path fill-rule="evenodd" clip-rule="evenodd" d="M203.812 19.9009L203.136 34.9359C203.121 35.3277 202.956 35.6986 202.674 35.9707C202.391 36.2429 202.015 36.3949 201.623 36.3949C201.231 36.3949 200.854 36.2429 200.572 35.9707C200.29 35.6986 200.124 35.3277 200.11 34.9359L199.435 19.9009C199.424 19.6067 199.472 19.3133 199.577 19.0383C199.683 18.7633 199.842 18.5122 200.046 18.3002C200.251 18.0882 200.495 17.9196 200.766 17.8044C201.037 17.6892 201.329 17.6299 201.623 17.6299C201.918 17.6299 202.209 17.6892 202.48 17.8044C202.751 17.9196 202.996 18.0882 203.2 18.3002C203.404 18.5122 203.564 18.7633 203.669 19.0383C203.774 19.3133 203.823 19.6067 203.812 19.9009ZM203.548 39.2789C204.061 39.7559 204.318 40.3789 204.318 41.1489C204.318 41.9189 204.061 42.5419 203.548 43.0559C202.998 43.5319 202.338 43.7889 201.605 43.7889C201.257 43.7952 200.912 43.7301 200.59 43.5976C200.268 43.4652 199.977 43.2682 199.735 43.0189C199.185 42.5049 198.929 41.8829 198.929 41.1489C198.929 40.3789 199.185 39.7559 199.735 39.2789C200.248 38.7659 200.872 38.5459 201.605 38.5459C202.375 38.5459 203.035 38.7659 203.548 39.2789Z" fill="white"/>
<path fill-rule="evenodd" clip-rule="evenodd" d="M119.554 133.741C123.98 133.143 123.166 132.537 123.633 128.963C124.308 123.783 120.525 112.028 115.371 103.845C114.283 93.125 102.773 92.605 102.773 92.605C102.773 92.605 107.085 97.5 106.969 108.804C108.367 114.047 107.773 123.254 107.773 123.254C107.773 123.254 113.028 134.623 119.553 133.741" fill="#FFB594"/>
<path fill-rule="evenodd" clip-rule="evenodd" d="M101.199 92.0761C101.199 92.0761 102.662 91.4931 104.41 92.6581C112.49 94.0561 114.778 99.364 115.71 104.026C117.574 105.308 117.574 106.356 117.574 107.522C117.939 108.299 119.089 110.552 119.089 110.552C119.089 110.552 111.864 112.3 108.135 117.31C106.736 110.9 101.199 92.0751 101.199 92.0751" fill="white"/>
<path fill-rule="evenodd" clip-rule="evenodd" d="M94.2626 90.9659L95.2816 85.1509L86.0516 73.2769L80.8186 78.8579L78.2256 88.7209C78.2256 88.7209 86.6156 93.8489 94.2626 90.9669" fill="#FFB594"/>
<path fill-rule="evenodd" clip-rule="evenodd" d="M83.1853 78.682C83.1853 78.682 78.6283 75.814 80.7403 71.79C82.3723 68.683 85.2773 72.929 85.2773 72.929C85.2773 72.929 85.8013 69.267 88.4163 69.267C88.9393 68.221 89.9853 65.083 89.9853 65.083C89.9853 65.083 101.492 67.698 103.585 68.221C103.584 73.451 101.268 87.75 95.7013 88.19C86.7613 88.896 83.1853 78.682 83.1853 78.682Z" fill="#FFC6A0"/>
<path fill-rule="evenodd" clip-rule="evenodd" d="M103.226 72.7089C105.842 70.6159 106.715 62.9339 106.715 62.9339C106.715 62.9339 104.223 62.4419 100.039 60.8719C95.3308 58.7799 87.1718 56.1009 82.4638 61.8539C72.9238 66.2639 80.4018 81.7839 80.4018 81.7839L83.1308 78.7469C83.1308 78.7469 79.1748 75.4429 81.0388 72.4699C83.2218 68.9899 84.9818 73.5499 84.9818 73.5499C84.9818 73.5499 85.6218 71.1499 88.5818 70.1899C88.9378 69.4759 89.6218 67.4999 90.0218 66.3179C90.1076 66.0632 90.2852 65.8495 90.5201 65.7188C90.755 65.5881 91.0301 65.5496 91.2918 65.6109C93.7018 66.1709 100.015 67.6409 102.709 68.2869C103.233 68.4129 103.585 68.9059 103.534 69.4429L103.226 72.7089Z" fill="#520038"/>
<path fill-rule="evenodd" clip-rule="evenodd" d="M101.475 76.98C101.371 77.593 100.89 78.024 100.399 77.94C99.9093 77.858 99.5943 77.294 99.6973 76.68C99.8013 76.067 100.282 75.636 100.773 75.719C101.264 75.802 101.578 76.366 101.475 76.979V76.98ZM94.5153 75.54C94.4113 76.153 93.9303 76.584 93.4393 76.5C92.9493 76.418 92.6343 75.854 92.7373 75.24C92.8413 74.627 93.3223 74.196 93.8133 74.28C94.3043 74.362 94.6183 74.926 94.5153 75.54Z" fill="#552950"/>
<path d="M99.4615 74.1099L98.5615 75.7299L98.2615 80.1099H96.0215" stroke="#DB836E" stroke-width="1.063" stroke-linecap="round" stroke-linejoin="round"/>
<path d="M100.181 73.75C100.181 73.75 101.981 73.03 102.701 74.29" stroke="#5C2552" stroke-width="1.117" stroke-linecap="round" stroke-linejoin="round"/>
<path d="M81.6221 73.55C81.6221 73.55 82.1021 72.43 82.7421 72.83C83.3821 73.23 84.0221 74.27 83.3021 74.83C82.5821 75.39 83.4621 76.51 83.4621 76.51" stroke="#DB836E" stroke-width="1.117" stroke-linecap="round" stroke-linejoin="round"/>
<path d="M92.5811 72.1899C92.5811 72.1899 94.4211 73.3099 96.7411 73.1499" stroke="#5C2552" stroke-width="1.117" stroke-linecap="round" stroke-linejoin="round"/>
<path d="M83.9414 80.51C83.9414 80.51 85.7274 87.057 93.2034 88.464M92.9804 81.07C92.9804 81.07 95.2204 82.27 97.3804 82.27L92.9804 81.07ZM93.9404 83.63C93.9404 83.63 94.9004 84.03 95.4604 83.95L93.9404 83.63Z" stroke="#DB836E" stroke-width="1.063" stroke-linecap="round" stroke-linejoin="round"/>
<path d="M95.8028 92.1289C95.8028 92.1289 94.7348 94.9499 87.5048 94.2339C80.2748 93.5169 77.2148 89.1899 77.2148 89.1899" stroke="#E4EBF7" stroke-width="1.136" stroke-linecap="round" stroke-linejoin="round"/>
<path fill-rule="evenodd" clip-rule="evenodd" d="M78.3806 87.9438C78.3806 87.9438 84.9066 92.9158 94.8506 90.4298C94.8506 90.4298 104.428 91.4499 106.387 95.7519C111.747 107.522 106.93 132.587 106.387 135.714C109.883 139.769 105.921 144.197 105.921 144.197C90.2966 140.649 70.1106 143.597 70.1106 143.597C65.2616 140.051 68.8876 134.553 68.8876 134.553L62.6346 110.786C60.1496 95.5588 63.4676 90.9829 66.1836 90.0429C69.2136 88.9939 74.2236 88.7608 74.2236 88.7608C74.7196 88.7028 75.3036 88.6848 75.5936 88.5278C77.9536 87.2458 78.3806 87.9448 78.3806 87.9448" fill="white"/>
<path fill-rule="evenodd" clip-rule="evenodd" d="M66.083 90.2759C66.083 90.2759 59.208 90.7409 58.493 98.4319C58.027 107.289 61.523 109.386 61.523 109.386C61.523 109.386 67.598 131.488 78.319 132.343C86.709 130.167 83.077 125.641 82.98 120.923C82.747 109.619 75.872 104.026 75.872 104.026C75.872 104.026 71.66 90.2759 66.083 90.2759Z" fill="#FFC6A0"/>
<path fill-rule="evenodd" clip-rule="evenodd" d="M71.9707 124.691C71.9707 124.691 72.8257 135.955 81.7987 131.177C86.5637 128.641 89.3797 117.349 91.5877 108.609C93.0437 102.841 94.1677 96.4119 94.1677 96.4119L89.1947 94.7029C89.1947 94.7029 86.7867 100.219 81.4257 106.978C77.0907 112.445 72.2817 118.088 71.9707 124.691Z" fill="#FFC6A0"/>
<path d="M108.718 105.657C108.718 105.657 110.465 108.381 106.387 136.192C108.763 138.408 107.44 142.204 106.154 143.702" stroke="#E4EBF7" stroke-width="1.085" stroke-linecap="round" stroke-linejoin="round"/>
<path fill-rule="evenodd" clip-rule="evenodd" d="M123.517 131.993C123.517 131.993 123.09 134.725 111.747 133.974C96.5599 132.968 86.4209 130.724 86.4209 130.724L87.3539 124.924C87.3539 124.924 88.0769 125.139 97.0639 124.856C108.951 124.483 115.778 118.786 122.028 123.834C126.067 127.097 123.517 131.994 123.517 131.994" fill="#FFC6A0"/>
<path fill-rule="evenodd" clip-rule="evenodd" d="M70.4944 91.4401C70.4944 91.4401 64.9014 86.7011 59.4404 94.1201C56.1224 101.343 59.9574 109.404 62.1044 113.698C61.7944 117.427 64.4344 118.009 64.4344 118.009C64.4344 118.009 64.5424 118.904 65.9504 120.689C70.0284 113.659 72.6704 111.523 79.6614 108.143C79.3334 107.487 77.7844 104.878 77.8364 104.376C78.0114 102.686 76.5544 101.753 76.5544 101.753C76.5544 101.753 76.2684 101.597 75.3894 99.0151C74.6014 96.7021 73.3534 93.8381 70.4944 91.4401Z" fill="white"/>
<path fill-rule="evenodd" clip-rule="evenodd" d="M90.4872 288.493C90.4872 288.493 95.3422 290.801 98.8002 289.648C101.988 288.585 103.92 290.403 106.802 290.979C109.683 291.556 114.571 292.222 120.009 289.555C119.892 283.327 112.223 285.056 106.491 281.967C103.596 280.407 102.215 276.631 102.425 272.023H91.7992C91.7992 272.023 90.2262 283.913 90.4872 288.493Z" fill="#CBD1D1"/>
<path fill-rule="evenodd" clip-rule="evenodd" d="M90.4619 288.299C90.4619 288.299 93.2069 289.736 98.1009 289.037C101.557 288.543 101.324 289.697 105.519 290.319C109.714 290.94 118.611 290.125 119.853 289.193C120.319 290.435 119.465 291.523 119.465 291.523C119.465 291.523 117.756 292.205 114.027 292.455C111.732 292.609 105.929 292.731 103.887 291.834C101.867 290.28 98.9929 290.319 97.8269 291.6C93.3999 292.675 90.6429 291.29 90.6429 291.29L90.4619 288.299Z" fill="#2B0849"/>
<path fill-rule="evenodd" clip-rule="evenodd" d="M98.6843 272.723H102.18C102.18 272.723 102.063 280.297 107.307 282.394C102.063 283.094 97.6353 279.792 98.6843 272.723Z" fill="#A4AABA"/>
<path fill-rule="evenodd" clip-rule="evenodd" d="M44.6804 272.512C44.6804 272.512 42.4724 280.286 39.9784 285.411C38.0944 289.285 35.5504 293.265 45.7074 293.265C52.6774 293.265 55.0924 292.762 53.4894 286.348C51.8854 279.933 53.7684 272.512 53.7684 272.512H44.6804Z" fill="#CBD1D1"/>
<path fill-rule="evenodd" clip-rule="evenodd" d="M38.3205 290.743C38.3205 290.743 40.5185 291.968 45.2745 291.968C51.6505 291.968 53.9205 290.238 53.9205 290.238C53.9205 290.238 54.5505 291.406 53.2715 292.508C52.2315 293.405 49.5015 294.176 45.5265 294.129C41.1795 294.079 39.4115 293.536 38.4645 292.905C37.6005 292.328 37.7445 291.248 38.3205 290.743Z" fill="#2B0849"/>
<path fill-rule="evenodd" clip-rule="evenodd" d="M45.5985 274.507C45.5985 274.507 45.6335 276.099 45.2695 277.577C44.9045 279.067 44.1395 280.832 44.0855 281.917C44.0245 283.123 48.8405 283.574 49.4885 281.953C50.1385 280.331 50.8455 275.216 51.4945 274.351C52.1425 273.486 46.3545 272.129 45.5985 274.507Z" fill="#A4AABA"/>
<path fill-rule="evenodd" clip-rule="evenodd" d="M89.7313 278.036L103.63 278.131C103.63 278.131 104.979 221.488 105.555 211.222C106.131 200.955 109.478 166.17 106.597 145.637L93.5603 144.968L69.8233 145.778C69.8233 145.778 69.3713 149.898 68.5803 156.143C68.5153 156.658 67.8723 157.017 67.8033 157.56C67.7253 158.168 68.2423 158.967 68.1353 159.604C65.6803 174.231 62.3383 192.34 59.8793 206.441C59.7583 207.134 58.5973 207.489 58.3643 209.237C58.3223 209.551 58.5843 210.821 58.4803 211.102C51.3403 230.575 46.2783 263.703 42.8203 278.292L57.9963 278.277C57.9963 278.277 60.2783 268.132 62.1813 259.406C65.1033 246.017 86.1933 171.086 86.1933 171.086L89.3263 170.132L89.1683 218.7C89.1683 218.7 88.9353 219.982 89.5183 220.798C90.1013 221.613 88.9373 221.965 89.1103 223.129L89.5183 224.993C89.5183 224.993 89.0523 232.451 88.5863 237.345C88.1193 242.24 89.7313 278.035 89.7313 278.035" fill="#7BB2F9"/>
<path d="M96.2792 223C96.2792 223 99.1602 221.848 102.619 218.966M64.8252 219.347C66.0222 219.446 69.0202 217.25 72.0502 214.22L64.8252 219.347Z" stroke="#648BD8" stroke-width="1.085" stroke-linecap="round" stroke-linejoin="round"/>
<path d="M97.2275 219.839C97.2275 219.839 100.11 218.686 103.568 215.805" stroke="#648BD8" stroke-width="1.032" stroke-linecap="round" stroke-linejoin="round"/>
<path d="M44.4971 274.193H58.3251M63.4271 222.61C63.4271 222.61 66.1511 221.996 70.1861 219.114L63.4271 222.61ZM75.1581 146.632C74.8771 149.858 75.4681 155.488 70.6521 156.11L75.1581 146.632ZM93.4371 144.81C93.4371 144.81 93.5521 159.367 92.0931 160.46C89.7881 162.19 88.9861 162.48 88.9861 162.48L93.4371 144.81ZM89.4521 145.389C89.4521 145.389 89.7211 158.533 88.4421 170.477L89.4521 145.389ZM83.7801 171.176C83.7801 171.176 90.5901 170.125 92.8961 170.125L83.7801 171.176ZM46.2811 270.511L45.3891 275.049L46.2811 270.511ZM47.1921 263.755L46.3771 267.912L47.1921 263.755ZM62.9801 202.969C62.6501 204.587 62.8781 204.873 62.5311 206.407C62.5311 206.407 59.7751 208.31 60.2411 210.33C60.7071 212.35 59.9311 213.754 55.7361 227.582C53.9741 233.389 51.5031 246.504 49.5711 255.86C49.5411 256.004 49.0501 258.506 48.4311 261.66L62.9801 202.969ZM64.4131 194.602C64.1181 196.26 63.8131 197.912 63.4961 199.54L64.4131 194.602ZM71.5851 147.253L70.3411 158.13C70.3411 158.13 69.2011 158.285 69.8221 160.46C69.9391 161.859 67.0441 176.85 64.4401 192.075L71.5851 147.253Z" stroke="#648BD8" stroke-width="1.085" stroke-linecap="round" stroke-linejoin="round"/>
<path fill-rule="evenodd" clip-rule="evenodd" d="M106.435 142.583C103.407 142.094 87.6099 139.839 70.2159 142.783C70.066 142.809 69.9306 142.889 69.8353 143.007C69.7399 143.126 69.6911 143.275 69.6979 143.427C69.7609 144.734 69.7419 145.77 69.7129 146.422C69.7089 146.514 69.7253 146.605 69.7611 146.69C69.7968 146.774 69.851 146.849 69.9195 146.91C69.9881 146.971 70.0694 147.016 70.1576 147.042C70.2457 147.067 70.3384 147.073 70.4289 147.058C73.7319 146.524 87.4659 144.646 106.093 146.792C106.44 146.832 106.753 146.578 106.785 146.232C106.909 144.885 106.945 143.807 106.955 143.203C106.958 143.054 106.907 142.91 106.811 142.796C106.715 142.682 106.582 142.606 106.435 142.583Z" fill="#192064"/>
<path fill-rule="evenodd" clip-rule="evenodd" d="M96.6528 145.73L96.6558 140.628C96.657 140.409 96.5734 140.199 96.4224 140.041C96.2715 139.883 96.0651 139.79 95.8468 139.781C93.1342 139.679 90.4188 139.675 87.7058 139.767C87.4861 139.775 87.278 139.867 87.1251 140.025C86.9722 140.183 86.8864 140.394 86.8858 140.614L86.8828 145.711C86.8828 146.187 87.2708 146.568 87.7468 146.556C90.2248 146.492 92.9128 146.489 95.7768 146.573C95.8901 146.577 96.003 146.558 96.1088 146.517C96.2146 146.476 96.3112 146.415 96.3928 146.336C96.4745 146.258 96.5396 146.164 96.5842 146.06C96.6289 145.955 96.6522 145.843 96.6528 145.73Z" fill="white"/>
<path fill-rule="evenodd" clip-rule="evenodd" d="M95.4935 144.762L95.4955 141.567C95.497 141.393 95.4306 141.226 95.3105 141.1C95.1904 140.975 95.0261 140.901 94.8525 140.895C92.9525 140.834 90.9115 140.822 88.7585 140.885C88.5837 140.89 88.4178 140.963 88.2958 141.089C88.1738 141.214 88.1052 141.382 88.1045 141.557L88.1025 144.749C88.1025 145.125 88.4075 145.426 88.7825 145.418C90.6415 145.376 92.6565 145.375 94.8025 145.43C95.1785 145.44 95.4925 145.139 95.4935 144.762Z" fill="#192064"/>
<path d="M90.6945 170.87L91.6264 217.25C91.6264 217.25 92.3264 218.881 91.3934 220.046C90.4614 221.212 93.9574 220.746 92.3254 222.376C90.6954 224.009 93.2584 223.542 92.3254 225.873C91.7074 227.419 91.2944 247.794 91.1874 262.386M90.3564 273.988H103.175H90.3564ZM91.4705 270.227C91.4765 273.746 91.3985 275.777 91.4705 276.519V270.227ZM91.1774 263.94C91.1684 265.539 91.1614 266.498 91.1614 268.445L91.1774 263.94Z" stroke="#648BD8" stroke-width="1.085" stroke-linecap="round" stroke-linejoin="round"/>
<path d="M77.8528 90.5078C77.8528 90.5078 85.5438 96.6448 94.3998 93.2278M73.9908 99.1308L76.2048 103.443C76.2048 103.443 78.3028 104.259 78.0698 106.123L78.8858 108.337L73.9908 99.1308ZM64.5518 117.077C64.7848 116.145 66.7278 109.93 77.1368 106.589L64.5518 117.077Z" stroke="#E4EBF7" stroke-width="1.085" stroke-linecap="round" stroke-linejoin="round"/>
<path fill-rule="evenodd" clip-rule="evenodd" d="M92.2287 87.4199C92.2287 87.4199 97.7047 86.6039 99.8027 82.8749C101.1 82.5299 100.523 85.0869 99.4727 86.5459C98.7727 87.5169 98.4627 88.0999 98.4627 88.0999C98.4627 88.0999 98.6567 88.4099 98.6177 88.9159C98.5647 89.6129 98.4427 89.5689 98.3457 89.9639C98.2647 90.2989 98.4537 90.6209 98.3457 91.0129C98.2997 91.1829 98.1477 91.5129 97.9637 91.8909C97.8437 92.1399 97.8917 92.5779 97.7637 92.8389C97.5327 93.3079 96.2017 94.7089 95.1417 95.6939C91.3157 99.2479 90.1237 97.3379 89.1407 95.2859C88.2467 93.4209 88.4797 90.1589 88.2667 88.4109C87.9167 85.4969 85.6447 85.3809 86.3437 83.9819C86.6867 83.2969 89.2137 84.6719 89.6067 85.7299C90.3637 87.7699 92.5587 87.5369 92.2287 87.4199Z" fill="#FFC6A0"/>
<path d="M100.055 82.895C99.5902 82.972 99.7052 83.167 99.0852 84.138C98.4632 85.109 94.2682 87.07 92.6952 87.362C90.1062 87.842 90.4172 85.802 88.4412 84.507C86.7512 83.4 84.8792 83.869 87.0432 85.905C88.0332 86.837 87.9752 87.012 88.4412 89.11C88.7762 90.616 87.8012 92.78 89.1412 94.703" stroke="#DB836E" stroke-width="0.774" stroke-linecap="round" stroke-linejoin="round"/>
<path d="M79.7982 109.139C77.6982 112.065 75.5322 115.314 74.2412 117.901" stroke="#E59788" stroke-width="0.774" stroke-linecap="round" stroke-linejoin="round"/>
<path fill-rule="evenodd" clip-rule="evenodd" d="M87.9751 125.234C87.9751 125.234 85.8771 123.292 82.8481 122.515C79.8181 121.738 79.2741 122.36 77.3321 122.593C75.3901 122.826 73.4471 121.661 73.6801 123.293C73.9131 124.923 78.7301 124.303 78.8861 125.39C79.0411 126.477 72.5161 128.186 70.5731 127.565C69.7961 128.342 71.0391 129.429 72.5931 129.74C72.8261 131.294 74.8461 131.294 74.8461 131.294C74.8461 131.294 75.5451 132.304 77.4871 132.382C79.9731 133.702 86.4211 131.682 88.4411 130.828C90.4611 129.973 87.9751 125.234 87.9751 125.234Z" fill="#FFC6A0"/>
<path d="M79.1192 108.57C79.1192 108.57 70.7292 111.328 65.9512 120.69M73.6802 123.292C73.6802 123.292 74.3402 124.419 76.8472 124.71C79.1622 124.98 79.4102 125.293 79.4102 125.293C79.4102 125.293 76.8652 128.187 70.3402 127.565L73.6802 123.292ZM72.6712 129.74C72.6712 129.74 76.4972 129.837 77.6042 129.022L72.6712 129.74ZM75.2352 131.216C75.2352 131.216 77.1962 131.352 78.5952 130.711L75.2352 131.216ZM77.4872 132.382C77.4872 132.382 79.2352 132.401 80.4012 131.877L77.4872 132.382ZM73.5832 122.787C73.5832 122.787 72.9882 121.755 74.8452 122.36C76.5162 122.904 77.6782 122.415 79.9732 122.515C81.3622 122.576 83.0402 122.218 83.9552 122.665C85.5612 123.449 87.5872 124.846 87.5872 124.846C87.5872 124.846 98.1132 126.05 106.62 123.719L73.5832 122.787Z" stroke="#E59788" stroke-width="0.774" stroke-linecap="round" stroke-linejoin="round"/>
<path d="M109.533 112.999C109.533 112.999 112.913 109.386 117.108 108.337" stroke="#E4EBF7" stroke-width="1.085" stroke-linecap="round" stroke-linejoin="round"/>
<path d="M107.63 123.472C107.63 123.472 117.327 120.727 119.075 122.592" stroke="#E59788" stroke-width="0.774" stroke-linecap="round" stroke-linejoin="round"/>
<path d="M133.23 170.505L129.275 166.55M194.86 84.122L198.831 80.236L194.86 84.122ZM187.421 91.399L191.157 87.744L187.421 91.399ZM192.007 84.673L187.545 80.113L192.007 84.673ZM198.708 91.523L194.575 87.298L198.708 91.523ZM129.511 163.54L133.229 159.822L129.511 163.54ZM122.546 170.505L126.044 167.007L122.546 170.505ZM126.816 164.092L122.546 159.822L126.816 164.092Z" stroke="#BFCDDD" stroke-width="2" stroke-linecap="round" stroke-linejoin="round"/>
<path fill-rule="evenodd" clip-rule="evenodd" d="M190.411 212.245H188.807C187.744 212.242 186.726 211.818 185.974 211.067C185.223 210.315 184.799 209.297 184.796 208.234V176.146C184.799 175.084 185.223 174.066 185.974 173.314C186.725 172.563 187.743 172.139 188.806 172.136H190.411C191.474 172.139 192.492 172.563 193.243 173.314C193.995 174.065 194.418 175.083 194.422 176.146V208.234C194.418 209.296 193.995 210.314 193.244 211.066C192.492 211.817 191.474 212.241 190.412 212.244" fill="#A3B4C6"/>
<path fill-rule="evenodd" clip-rule="evenodd" d="M238.078 213.443C238.078 214.719 237.571 215.944 236.669 216.846C235.766 217.749 234.542 218.256 233.265 218.256H146.629C145.353 218.256 144.129 217.749 143.226 216.846C142.323 215.944 141.816 214.719 141.816 213.443C141.816 212.166 142.323 210.942 143.226 210.04C144.129 209.137 145.353 208.63 146.629 208.63H233.265C234.542 208.63 235.766 209.137 236.669 210.04C237.571 210.942 238.078 212.166 238.078 213.443Z" fill="#A3B4C6"/>
<path fill-rule="evenodd" clip-rule="evenodd" d="M154.353 190.562H224.866V105.945H154.353V190.562Z" fill="#A3B4C6"/>
<path fill-rule="evenodd" clip-rule="evenodd" d="M225.183 190.562H154.035C153.185 190.559 152.371 190.22 151.77 189.619C151.169 189.017 150.83 188.203 150.827 187.353V168.386C150.83 167.536 151.168 166.721 151.769 166.119C152.37 165.518 153.185 165.179 154.035 165.176H225.183C226.034 165.178 226.848 165.518 227.45 166.119C228.051 166.72 228.39 167.535 228.392 168.386V187.353C228.389 188.203 228.05 189.018 227.449 189.619C226.848 190.221 226.033 190.559 225.182 190.562H225.183ZM225.183 131.298H154.035C153.185 131.295 152.371 130.956 151.77 130.355C151.169 129.754 150.83 128.94 150.827 128.09V109.122C150.83 108.272 151.169 107.457 151.77 106.856C152.371 106.255 153.185 105.916 154.035 105.913H225.183C226.034 105.915 226.848 106.255 227.45 106.856C228.051 107.457 228.39 108.272 228.392 109.123V128.09C228.389 128.94 228.05 129.755 227.449 130.356C226.847 130.957 226.032 131.296 225.182 131.298" fill="#BFCDDD"/>
<path fill-rule="evenodd" clip-rule="evenodd" d="M159.818 121.012C159.498 121.019 159.18 120.961 158.882 120.843C158.585 120.725 158.313 120.549 158.085 120.325C157.856 120.101 157.674 119.833 157.55 119.538C157.426 119.243 157.362 118.926 157.362 118.605C157.362 118.285 157.426 117.968 157.55 117.673C157.674 117.378 157.856 117.11 158.085 116.886C158.313 116.662 158.585 116.486 158.882 116.368C159.18 116.25 159.498 116.192 159.818 116.199C160.448 116.212 161.048 116.471 161.489 116.921C161.929 117.371 162.176 117.976 162.176 118.605C162.176 119.235 161.929 119.84 161.489 120.29C161.048 120.74 160.448 120.999 159.818 121.012ZM167.235 121.012C166.915 121.019 166.597 120.961 166.299 120.843C166.002 120.725 165.73 120.549 165.502 120.325C165.273 120.101 165.091 119.833 164.967 119.538C164.843 119.243 164.779 118.926 164.779 118.605C164.779 118.285 164.843 117.968 164.967 117.673C165.091 117.378 165.273 117.11 165.502 116.886C165.73 116.662 166.002 116.486 166.299 116.368C166.597 116.25 166.915 116.192 167.235 116.199C167.865 116.212 168.465 116.471 168.906 116.921C169.346 117.371 169.593 117.976 169.593 118.605C169.593 119.235 169.346 119.84 168.906 120.29C168.465 120.74 167.865 120.999 167.235 121.012ZM174.652 121.012C174.332 121.019 174.014 120.961 173.716 120.843C173.419 120.725 173.147 120.549 172.919 120.325C172.69 120.101 172.508 119.833 172.384 119.538C172.26 119.243 172.196 118.926 172.196 118.605C172.196 118.285 172.26 117.968 172.384 117.673C172.508 117.378 172.69 117.11 172.919 116.886C173.147 116.662 173.419 116.486 173.716 116.368C174.014 116.25 174.332 116.192 174.652 116.199C175.282 116.212 175.882 116.471 176.323 116.921C176.763 117.371 177.01 117.976 177.01 118.605C177.01 119.235 176.763 119.84 176.323 120.29C175.882 120.74 175.282 120.999 174.652 121.012ZM222.794 121.012H200.333C200.121 121.012 199.917 120.927 199.766 120.777C199.616 120.627 199.531 120.423 199.531 120.21V117.002C199.531 116.559 199.89 116.199 200.333 116.199H222.793C223.237 116.199 223.596 116.559 223.596 117.002V120.21C223.596 120.653 223.236 121.012 222.794 121.012Z" fill="white"/>
<path fill-rule="evenodd" clip-rule="evenodd" d="M225.183 160.93H154.035C153.185 160.927 152.37 160.588 151.769 159.987C151.168 159.386 150.83 158.571 150.827 157.721V138.754C150.83 137.904 151.169 137.089 151.77 136.488C152.371 135.887 153.185 135.548 154.035 135.545H225.183C226.033 135.548 226.848 135.886 227.449 136.488C228.051 137.089 228.389 137.904 228.392 138.754V157.721C228.39 158.571 228.051 159.386 227.449 159.988C226.848 160.589 226.033 160.928 225.182 160.93" fill="#BFCDDD"/>
<path d="M155.825 161.079H162.576M173.71 131.298H223.011H173.71ZM165.239 131.298H171.328H165.239ZM156.207 131.298H162.957H156.207ZM174.092 161.079H223.392H174.092ZM165.62 161.079H171.709H165.62Z" stroke="#7C90A5" stroke-width="1.124" stroke-linecap="round" stroke-linejoin="round"/>
<path fill-rule="evenodd" clip-rule="evenodd" d="M159.818 151.504C159.18 151.504 158.568 151.25 158.116 150.799C157.665 150.348 157.411 149.735 157.411 149.097C157.411 148.459 157.665 147.846 158.116 147.395C158.568 146.944 159.18 146.69 159.818 146.69C160.457 146.69 161.069 146.944 161.52 147.395C161.972 147.846 162.225 148.459 162.225 149.097C162.225 149.735 161.972 150.348 161.52 150.799C161.069 151.25 160.457 151.504 159.818 151.504ZM167.235 151.504C166.597 151.504 165.985 151.25 165.533 150.799C165.082 150.348 164.828 149.735 164.828 149.097C164.828 148.459 165.082 147.846 165.533 147.395C165.985 146.944 166.597 146.69 167.235 146.69C167.874 146.69 168.486 146.944 168.937 147.395C169.389 147.846 169.642 148.459 169.642 149.097C169.642 149.735 169.389 150.348 168.937 150.799C168.486 151.25 167.874 151.504 167.235 151.504ZM174.652 151.504C174.336 151.504 174.023 151.442 173.731 151.321C173.439 151.2 173.174 151.022 172.951 150.799C172.727 150.575 172.55 150.31 172.429 150.018C172.308 149.726 172.246 149.413 172.246 149.096C172.246 148.78 172.308 148.467 172.429 148.175C172.55 147.883 172.728 147.618 172.951 147.395C173.175 147.171 173.44 146.994 173.732 146.873C174.024 146.752 174.337 146.69 174.653 146.69C175.292 146.69 175.904 146.944 176.355 147.395C176.807 147.846 177.06 148.459 177.06 149.097C177.06 149.735 176.807 150.348 176.355 150.799C175.904 151.25 175.292 151.504 174.653 151.504H174.652ZM222.794 151.504H200.333C200.121 151.504 199.917 151.419 199.766 151.269C199.616 151.119 199.531 150.915 199.531 150.702V147.493C199.531 147.05 199.89 146.691 200.333 146.691H222.793C223.237 146.691 223.596 147.051 223.596 147.493V150.702C223.596 151.145 223.236 151.504 222.794 151.504ZM159.818 180.453C159.498 180.459 159.18 180.402 158.882 180.284C158.585 180.166 158.313 179.99 158.085 179.766C157.856 179.542 157.674 179.274 157.55 178.979C157.426 178.684 157.362 178.367 157.362 178.046C157.362 177.726 157.426 177.409 157.55 177.114C157.674 176.819 157.856 176.551 158.085 176.327C158.313 176.103 158.585 175.927 158.882 175.809C159.18 175.691 159.498 175.633 159.818 175.64C160.448 175.653 161.048 175.912 161.489 176.362C161.929 176.812 162.176 177.417 162.176 178.046C162.176 178.676 161.929 179.281 161.489 179.731C161.048 180.181 160.448 180.44 159.818 180.453ZM167.235 180.453C166.915 180.459 166.597 180.402 166.299 180.284C166.002 180.166 165.73 179.99 165.502 179.766C165.273 179.542 165.091 179.274 164.967 178.979C164.843 178.684 164.779 178.367 164.779 178.046C164.779 177.726 164.843 177.409 164.967 177.114C165.091 176.819 165.273 176.551 165.502 176.327C165.73 176.103 166.002 175.927 166.299 175.809C166.597 175.691 166.915 175.633 167.235 175.64C167.865 175.653 168.465 175.912 168.906 176.362C169.346 176.812 169.593 177.417 169.593 178.046C169.593 178.676 169.346 179.281 168.906 179.731C168.465 180.181 167.865 180.44 167.235 180.453ZM174.652 180.453C174.332 180.459 174.014 180.402 173.716 180.284C173.419 180.166 173.147 179.99 172.919 179.766C172.69 179.542 172.508 179.274 172.384 178.979C172.26 178.684 172.196 178.367 172.196 178.046C172.196 177.726 172.26 177.409 172.384 177.114C172.508 176.819 172.69 176.551 172.919 176.327C173.147 176.103 173.419 175.927 173.716 175.809C174.014 175.691 174.332 175.633 174.652 175.64C175.282 175.653 175.882 175.912 176.323 176.362C176.763 176.812 177.01 177.417 177.01 178.046C177.01 178.676 176.763 179.281 176.323 179.731C175.882 180.181 175.282 180.44 174.652 180.453ZM222.794 180.453H200.333C200.121 180.453 199.917 180.368 199.766 180.218C199.616 180.068 199.531 179.864 199.531 179.651V176.442C199.531 175.999 199.89 175.64 200.333 175.64H222.793C223.237 175.64 223.596 176 223.596 176.442V179.651C223.596 180.094 223.236 180.453 222.794 180.453Z" fill="white"/>
<path fill-rule="evenodd" clip-rule="evenodd" d="M203.295 221.574H175.923C175.285 221.572 174.674 221.318 174.223 220.867C173.772 220.416 173.518 219.805 173.517 219.167V207.719C173.518 207.081 173.772 206.47 174.223 206.019C174.674 205.568 175.285 205.314 175.923 205.312H203.295C203.932 205.314 204.544 205.568 204.995 206.019C205.446 206.47 205.7 207.081 205.702 207.719V219.166C205.7 219.804 205.446 220.415 204.995 220.866C204.544 221.317 203.932 221.571 203.295 221.573" fill="#BFCDDD"/>
<path d="M201.305 207.683V219.203M177.514 207.683V219.203V207.683Z" stroke="#A3B4C6" stroke-width="1.124" stroke-linecap="round" stroke-linejoin="round"/>
<path fill-rule="evenodd" clip-rule="evenodd" d="M163.128 268.36C160.629 268.36 158.233 267.367 156.466 265.6C154.699 263.833 153.706 261.437 153.706 258.938V244.118C153.732 241.636 154.736 239.264 156.5 237.518C158.264 235.771 160.646 234.792 163.129 234.792C165.611 234.792 167.993 235.771 169.757 237.518C171.521 239.264 172.525 241.636 172.551 244.118V258.938C172.551 261.437 171.558 263.833 169.791 265.6C168.024 267.367 165.627 268.36 163.128 268.36Z" fill="#5BA02E"/>
<path fill-rule="evenodd" clip-rule="evenodd" d="M171.475 268.296C170.237 268.296 169.012 268.052 167.869 267.579C166.726 267.105 165.687 266.411 164.812 265.536C163.937 264.661 163.243 263.622 162.77 262.479C162.296 261.336 162.053 260.11 162.053 258.873V255.435C162.078 252.953 163.082 250.581 164.847 248.835C166.611 247.089 168.993 246.109 171.475 246.109C173.958 246.109 176.34 247.089 178.104 248.835C179.868 250.581 180.872 252.953 180.898 255.435V258.873C180.898 261.372 179.905 263.769 178.138 265.536C176.371 267.303 173.975 268.296 171.476 268.296" fill="#92C110"/>
<path fill-rule="evenodd" clip-rule="evenodd" d="M181.565 294.132H153.853C153.431 294.132 153.014 294.049 152.624 293.888C152.235 293.726 151.881 293.49 151.583 293.192C151.285 292.894 151.049 292.54 150.888 292.15C150.726 291.761 150.643 291.343 150.644 290.922V270.256C150.643 269.834 150.726 269.417 150.888 269.028C151.049 268.638 151.285 268.284 151.583 267.986C151.881 267.688 152.235 267.452 152.624 267.29C153.014 267.129 153.431 267.046 153.853 267.046H181.564C181.985 267.046 182.402 267.129 182.792 267.29C183.181 267.452 183.535 267.688 183.833 267.986C184.131 268.284 184.367 268.638 184.529 269.028C184.69 269.417 184.773 269.834 184.773 270.256V290.924C184.773 291.775 184.434 292.591 183.833 293.193C183.231 293.795 182.415 294.133 181.564 294.133" fill="#F2D7AD"/>
</svg>
